<svg width="51" height="48" viewBox="0 0 51 48" fill="none" xmlns="http://www.w3.org/2000/svg">
<path d="M25.5 0C39.5833 0 51 5.14873 51 11.5C51 13.458 49.9137 15.3003 48 16.9141V48H3V16.9141C1.08628 15.3003 0 13.458 0 11.5C0 5.14873 11.4167 0 25.5 0Z" fill="#096B38"/>
<path d="M50 11.5C50 8.96185 47.671 6.33268 43.1201 4.28027C38.6622 2.26984 32.4334 1 25.5 1C18.5666 1 12.3378 2.26984 7.87988 4.28027C3.32898 6.33268 1 8.96185 1 11.5C1 13.0586 1.86161 14.6459 3.64453 16.1494L4 16.4492V47H47V16.4492L47.3555 16.1494C49.1384 14.6459 50 13.0586 50 11.5ZM51 11.5C51 13.458 49.9137 15.3003 48 16.9141V48H3V16.9141C1.08628 15.3003 0 13.458 0 11.5C0 5.14873 11.4167 0 25.5 0C39.5833 0 51 5.14873 51 11.5Z" fill="#FBFDF1"/>
<path d="M21.5 0C33.3741 0 43 5.14873 43 11.5C43 13.4579 42.0841 15.3003 40.4707 16.9141V48H2.5293V16.9141C0.915938 15.3003 0 13.4579 0 11.5C9.63585e-07 5.14873 9.62588 0 21.5 0Z" fill="#096B38"/>
<path d="M42 11.5C42 8.87201 39.9925 6.2618 36.2314 4.25C32.5125 2.2608 27.3057 1 21.5 1C15.6943 1 10.4875 2.2608 6.76855 4.25C3.1249 6.19899 1.12707 8.70961 1.00586 11.2539L1 11.5C1 13.1241 1.75572 14.726 3.23633 16.207L3.5293 16.5V47H39.4707V16.5L39.7637 16.207C41.2443 14.726 42 13.1241 42 11.5ZM43 11.5C43 13.4579 42.0841 15.3003 40.4707 16.9141V48H2.5293V16.9141C0.915938 15.3003 0 13.4579 0 11.5C9.63585e-07 5.14873 9.62588 0 21.5 0C33.3741 0 43 5.14873 43 11.5Z" fill="#FBFDF1"/>
</svg>
